<svg width="25" height="24" viewBox="0 0 25 24" fill="none" xmlns="http://www.w3.org/2000/svg">
<g opacity="0.5">
<path fill-rule="evenodd" clip-rule="evenodd" d="M4.7998 7C4.24752 7 3.7998 7.44772 3.7998 8V16C3.7998 16.5523 4.24752 17 4.7998 17H20.7998C21.3521 17 21.7998 16.5523 21.7998 16V8C21.7998 7.44772 21.3521 7 20.7998 7H4.7998ZM1.7998 8C1.7998 6.34315 3.14295 5 4.7998 5H20.7998C22.4567 5 23.7998 6.34315 23.7998 8V16C23.7998 17.6569 22.4567 19 20.7998 19H4.7998C3.14295 19 1.7998 17.6569 1.7998 16V8Z" fill="white"/>
<path fill-rule="evenodd" clip-rule="evenodd" d="M8.7998 9C9.35209 9 9.7998 9.44771 9.7998 10V11H10.7998C11.3521 11 11.7998 11.4477 11.7998 12C11.7998 12.5523 11.3521 13 10.7998 13H9.7998V14C9.7998 14.5523 9.35209 15 8.7998 15C8.24752 15 7.7998 14.5523 7.7998 14V13H6.7998C6.24752 13 5.7998 12.5523 5.7998 12C5.7998 11.4477 6.24752 11 6.7998 11H7.7998V10C7.7998 9.44771 8.24752 9 8.7998 9Z" fill="white"/>
<path fill-rule="evenodd" clip-rule="evenodd" d="M15.7998 9.5C16.6282 9.5 17.2998 10.1716 17.2998 11V11.0104C17.2998 11.8388 16.6282 12.5104 15.7998 12.5104C14.9714 12.5104 14.2998 11.8388 14.2998 11.0104V11C14.2998 10.1716 14.9714 9.5 15.7998 9.5Z" fill="white"/>
<path fill-rule="evenodd" clip-rule="evenodd" d="M18.7998 11.5C19.6282 11.5 20.2998 12.1715 20.2998 13V13.0103C20.2998 13.8387 19.6282 14.5103 18.7998 14.5103C17.9714 14.5103 17.2998 13.8387 17.2998 13.0103V13C17.2998 12.1715 17.9714 11.5 18.7998 11.5Z" fill="white"/>
</g>
</svg>
