<svg width="25" height="24" viewBox="0 0 25 24" fill="none" xmlns="http://www.w3.org/2000/svg">
<g opacity="0.5">
<path d="M4.6001 15V18C4.6001 19.1046 5.49553 20 6.6001 20H7.6001C8.70467 20 9.6001 19.1046 9.6001 18V15C9.6001 13.8954 8.70467 13 7.6001 13H6.6001C5.49553 13 4.6001 13.8954 4.6001 15ZM4.6001 15V12C4.6001 9.87827 5.44295 7.84344 6.94324 6.34315C8.44353 4.84285 10.4784 4 12.6001 4C14.7218 4 16.7567 4.84285 18.257 6.34315C19.7572 7.84344 20.6001 9.87827 20.6001 12L20.6001 15M20.6001 15C20.6001 13.8954 19.7047 13 18.6001 13H17.6001C16.4955 13 15.6001 13.8954 15.6001 15V18C15.6001 19.1046 16.4955 20 17.6001 20H18.6001C19.7047 20 20.6001 19.1046 20.6001 18V15Z" stroke="white" stroke-width="2" stroke-linecap="round" stroke-linejoin="round"/>
</g>
</svg>
